<svg width="961" height="871" viewBox="0 0 961 871" fill="none" xmlns="http://www.w3.org/2000/svg">
<path d="M751.33 205.885C817.015 276.79 869.215 356.395 874.87 441.655C880.525 526.915 839.635 617.83 773.95 672.205C707.83 726.145 616.915 743.98 528.175 741.37C439.87 739.195 353.74 716.575 307.63 662.635C261.955 608.26 255.865 522.13 248.905 429.04C241.945 336.385 234.55 236.335 280.225 165.43C326.335 94.5248 426.385 52.7648 515.995 62.7698C605.605 72.7748 685.21 134.98 751.33 205.885Z" fill="#2D83E9"/>
<path d="M790.972 483.629C789.808 488.029 765.098 578.741 692.489 615.251C689.46 616.776 686.342 618.203 683.134 619.531L682.377 618.375L681.491 617.026L682.709 617.294C683.954 617.568 685.254 617.406 686.393 616.834C687.531 616.261 688.438 615.314 688.961 614.151C714.318 602.08 733.221 556.677 733.221 502.679C733.327 483.884 730.879 465.161 725.944 447.026L726.748 443.366L729.186 432.311C732.002 425.656 734.726 419.112 737.293 412.725C751.246 377.989 760.748 348.143 759.04 334.491C759.908 339.815 776.973 448.44 733.258 545.613C760.656 521.424 787.306 495.571 790.972 483.629Z" fill="#E6E6E6"/>
<path d="M791 617.932H231.315V619.781H791V617.932Z" fill="#3F3D56"/>
<path d="M539.765 387.142C518.166 387.142 499.226 409.723 488.782 443.442C488.044 445.808 487.351 448.239 486.705 450.707C482.307 467.993 480.122 485.768 480.204 503.606C480.204 567.827 506.919 620.069 539.765 620.069C572.611 620.069 599.326 567.827 599.326 503.606C599.326 439.384 572.611 387.142 539.765 387.142ZM539.765 618.22C507.944 618.22 482.051 566.801 482.051 503.606C481.965 485.693 484.178 467.843 488.635 450.494C489.244 448.174 489.897 445.901 490.592 443.673C500.759 410.888 518.997 388.991 539.765 388.991C571.586 388.991 597.479 440.41 597.479 503.606C597.479 566.801 571.586 618.22 539.765 618.22Z" fill="#3F3D56"/>
<path d="M554.078 570.942C542.686 570.942 533.763 541.364 533.763 503.606C533.763 465.847 542.686 436.269 554.078 436.269C565.47 436.269 574.393 465.847 574.393 503.606C574.393 541.364 565.47 570.942 554.078 570.942ZM554.078 438.117C544.067 438.117 535.609 468.107 535.609 503.606C535.609 539.104 544.067 569.094 554.078 569.094C564.089 569.094 572.546 539.104 572.546 503.606C572.546 468.107 564.089 438.117 554.078 438.117Z" fill="#3F3D56"/>
<path d="M556.387 519.071C560.721 519.071 564.236 512.147 564.236 503.606C564.236 495.064 560.721 488.14 556.387 488.14C552.052 488.14 548.537 495.064 548.537 503.606C548.537 512.147 552.052 519.071 556.387 519.071Z" fill="#CFCCE0"/>
<path d="M539.303 273.451L665.813 272.989V322.877L539.303 327.985V273.451Z" fill="#3F3D56"/>
<path d="M431.261 442.651L429.417 442.55L435.006 340.926H549.461V342.774H436.754L431.261 442.651Z" fill="#3F3D56"/>
<path d="M429.461 608.623L362.903 597.86L362.885 594.708L429.441 605.471L429.461 608.623Z" fill="#3F3D56"/>
<path d="M519.696 640L431.237 632.06L431.347 628.891L519.807 636.832L519.696 640Z" fill="#3F3D56"/>
<path d="M626.336 442.749C625.643 444.976 624.991 447.25 624.378 449.57L622.448 449.783L562.389 456.466L424.798 442.601L567.929 435.206L624.526 442.518L626.336 442.749Z" fill="#3F3D56"/>
<path d="M419.72 533.645L410.485 565.072L428.03 579.861L440.958 540.115L419.72 533.645Z" fill="#9F616A"/>
<path d="M490.823 556.754L481.589 590.029L513.909 610.364C513.909 610.364 514.832 572.467 519.449 565.072L490.823 556.754Z" fill="#9F616A"/>
<path d="M530.531 379.285L525.913 388.528C525.913 388.528 473.278 364.496 459.427 397.772C445.575 431.047 415.102 536.419 415.102 536.419L441.882 547.511L490.823 435.669L602.558 432.896L607.175 370.967L530.531 379.285Z" fill="#2F2E41"/>
<path d="M569.315 394.999C569.315 394.999 493.594 379.285 488.053 417.182C482.512 455.079 490.823 527.175 491.747 529.024C492.67 530.873 488.053 565.072 488.053 565.072L521.296 569.694C521.296 569.694 542.535 468.944 533.301 443.063L595.78 439.195C617.347 437.859 634.966 420.806 636.206 399.212C636.681 390.947 634.614 383.445 627.49 379.285C605.328 366.345 564.697 366.345 564.697 366.345L569.315 394.999Z" fill="#2F2E41"/>
<path d="M422.49 564.148C422.49 564.148 416.026 550.283 406.792 556.754C397.557 563.224 376.318 577.089 376.318 577.089C376.318 577.089 343.464 588.669 372.625 596.499C398.563 603.464 404.945 602.045 404.945 602.045C404.945 602.045 426.183 605.742 428.954 603.894C431.724 602.045 433.571 572.467 433.571 572.467C433.571 572.467 420.643 569.694 422.49 564.148Z" fill="#2F2E41"/>
<path d="M494.517 592.802C494.517 592.802 485.283 579.862 478.819 585.407C472.355 590.953 449.269 606.667 449.269 606.667C449.269 606.667 410.485 617.758 444.652 627.926C478.819 638.093 516.679 636.245 517.603 632.547C518.526 628.85 515.756 602.045 515.756 602.045C515.756 602.045 496.364 601.121 494.517 592.802Z" fill="#2F2E41"/>
<path d="M666.736 336.304H664.889V265.75L694.698 274.412L694.181 276.188L666.736 268.212V336.304Z" fill="#3F3D56"/>
<path d="M726.748 443.366C716.359 409.175 697.281 386.215 675.507 386.215C653.908 386.215 634.968 408.796 624.524 442.515C623.786 444.882 623.093 447.313 622.447 449.78C618.049 467.066 615.864 484.842 615.946 502.679C615.946 566.9 642.66 619.142 675.507 619.142C677.818 619.142 680.122 618.885 682.377 618.375C704.53 613.384 723.017 584.536 730.931 545.345C733.717 531.295 735.103 517.003 735.068 502.679C735.068 481.031 732.03 460.743 726.748 443.366ZM688.961 614.151C684.767 616.192 680.17 617.266 675.507 617.294C643.685 617.294 617.793 565.874 617.793 502.679C617.711 484.766 619.924 466.917 624.377 449.568C624.986 447.248 625.639 444.974 626.334 442.746C636.501 409.961 654.739 388.064 675.507 388.064C697.161 388.064 716.073 411.884 725.944 447.026C730.879 465.161 733.327 483.884 733.221 502.679C733.221 556.677 714.318 602.08 688.961 614.151V614.151Z" fill="#3F3D56"/>
<path d="M689.822 570.018C678.429 570.018 669.506 540.44 669.506 502.681C669.506 464.923 678.429 435.344 689.822 435.344C701.214 435.344 710.137 464.923 710.137 502.681C710.137 540.44 701.214 570.018 689.822 570.018ZM689.822 437.193C679.811 437.193 671.353 467.183 671.353 502.681C671.353 538.18 679.811 568.169 689.822 568.169C699.832 568.169 708.29 538.18 708.29 502.681C708.29 467.183 699.832 437.193 689.822 437.193Z" fill="#3F3D56"/>
<path d="M692.13 518.147C696.465 518.147 699.979 511.223 699.979 502.681C699.979 494.14 696.465 487.215 692.13 487.215C687.795 487.215 684.281 494.14 684.281 502.681C684.281 511.223 687.795 518.147 692.13 518.147Z" fill="#CFCCE0"/>
<path d="M679.664 264.208L699.056 271.602L695.362 281.77L679.664 275.3V264.208Z" fill="#3F3D56"/>
<path d="M461.735 336.304V351.093H516.754V337.287L461.735 336.304Z" fill="#3F3D56"/>
<path d="M523.324 369.623L485.448 372.529C482.519 372.754 479.616 371.826 477.359 369.943C475.101 368.06 473.666 365.371 473.358 362.446C473.18 360.749 473.387 359.034 473.965 357.43C474.543 355.825 475.476 354.372 476.695 353.18C477.914 351.987 479.386 351.087 481.003 350.545C482.619 350.004 484.336 349.836 486.026 350.054L521.489 354.62L523.324 369.623Z" fill="#9F616A"/>
<path d="M597.394 262.764C597.375 266.843 596.961 270.911 596.157 274.909L590.625 353.633L535.026 369.67L518.626 374.403L517.878 370.04L515.08 353.8L514.212 348.771L533.761 345.25L565.453 339.538L569.23 240.664L582.13 238.316C583.088 236.27 583.939 234.175 584.678 232.04C588.334 235.279 591.294 239.229 593.377 243.649C594.45 245.92 595.303 248.287 595.926 250.72C596.922 254.657 597.415 258.703 597.394 262.764Z" fill="#E6E6E6"/>
<path d="M647.361 168.946C646.426 167.127 645.354 165.381 644.156 163.724C641.068 159.408 637.146 155.755 632.622 152.983C628.098 150.211 623.065 148.376 617.82 147.585C615.154 147.179 612.453 147.036 609.759 147.16C591.29 148.047 575.481 161.662 572.046 180.916C572.009 181.156 571.972 181.378 571.935 181.609L571.88 181.97L565.85 221.586L570.088 222.233L586.645 224.756L621.246 230.034L645.431 233.722L651.461 194.106C652.799 185.496 651.363 176.684 647.361 168.946V168.946Z" fill="#2F2E41"/>
<path d="M604.402 219.078C621.176 219.078 634.775 205.466 634.775 188.675C634.775 171.885 621.176 158.273 604.402 158.273C587.627 158.273 574.029 171.885 574.029 188.675C574.029 205.466 587.627 219.078 604.402 219.078Z" fill="#9F616A"/>
<path d="M626.168 247.522L595.926 250.72L573.256 253.123C576.687 248.488 579.659 243.529 582.13 238.316C583.088 236.27 583.939 234.175 584.679 232.04C585.504 229.661 586.162 227.227 586.645 224.756C587.354 221.2 587.648 217.575 587.523 213.951C587.442 212.03 587.241 210.116 586.922 208.22L623.675 207.841C623.084 209.671 622.588 211.495 622.188 213.313C620.971 218.799 620.653 224.446 621.246 230.034C621.52 232.588 621.98 235.118 622.622 237.604C623.512 241.008 624.699 244.326 626.168 247.522Z" fill="#9F616A"/>
<path d="M640.98 245.507L639.789 309.396C639.512 309.701 639.234 310.006 638.976 310.32C626.343 324.915 623.887 345.73 624.395 365.816C624.441 368.034 624.534 370.243 624.654 372.434C615.392 376.519 605.686 380.79 596.046 384.136C594.153 384.792 592.269 385.42 590.394 385.994C574.844 390.781 559.755 392.63 547.335 386.918C542.805 384.821 538.76 381.802 535.46 378.054L535.026 369.67L533.761 345.25L532.431 319.508C524.406 309.812 532.412 284.911 550.493 250.434C551.641 248.245 553.273 246.346 555.263 244.883C557.253 243.419 559.551 242.428 561.981 241.985L569.229 240.664L582.13 238.316L582.342 238.279C585.103 241.422 588.843 243.113 593.377 243.649C601.134 244.536 611.181 242.032 622.557 237.576L622.622 237.604L638.588 244.481L640.98 245.507Z" fill="#E6E6E6"/>
<path d="M643.418 168.975L632.19 191.905L566.984 180.77C568.49 172.378 572.577 164.667 578.675 158.713C584.772 152.759 592.575 148.86 600.994 147.56C609.413 146.261 618.027 147.626 625.633 151.466C633.239 155.305 639.457 161.426 643.418 168.975H643.418Z" fill="#2F2E41"/>
<path d="M507.418 329.108C506.941 328.637 506.316 328.344 505.648 328.278C504.981 328.213 504.311 328.378 503.751 328.747L481.349 343.352C480.981 343.592 480.672 343.911 480.443 344.286C480.214 344.662 480.072 345.083 480.026 345.521C479.981 345.958 480.034 346.4 480.182 346.814C480.329 347.228 480.567 347.604 480.878 347.914L537.848 404.692C538.125 404.968 538.454 405.186 538.816 405.333C539.178 405.481 539.565 405.555 539.956 405.551C540.347 405.547 540.733 405.466 541.092 405.311C541.45 405.157 541.775 404.932 542.047 404.651L560.716 385.309C561.256 384.748 561.552 383.996 561.541 383.217C561.53 382.438 561.212 381.695 560.656 381.15L507.418 329.108Z" fill="#CCCCCC"/>
<path d="M485.762 344.914L488.081 343.435C487.836 343.87 487.747 344.376 487.826 344.869C487.906 345.362 488.15 345.814 488.518 346.15C488.887 346.487 489.359 346.689 489.856 346.723C490.354 346.757 490.849 346.621 491.26 346.338L506.262 336.014C506.603 335.78 506.872 335.454 507.037 335.074C507.202 334.695 507.257 334.277 507.196 333.867C507.136 333.457 506.961 333.073 506.693 332.758C506.424 332.443 506.073 332.21 505.678 332.085L506.873 331.323C507.028 331.224 507.212 331.181 507.395 331.202C507.577 331.222 507.747 331.305 507.877 331.436L558.345 381.08C558.421 381.157 558.48 381.247 558.52 381.347C558.56 381.446 558.579 381.553 558.577 381.66C558.575 381.767 558.552 381.873 558.509 381.971C558.465 382.069 558.403 382.158 558.325 382.231L539.996 400.108C539.844 400.251 539.642 400.33 539.433 400.327C539.225 400.324 539.025 400.24 538.877 400.092L485.627 346.162C485.542 346.077 485.477 345.974 485.437 345.861C485.397 345.747 485.382 345.626 485.395 345.506C485.408 345.386 485.448 345.271 485.512 345.168C485.575 345.066 485.661 344.979 485.762 344.914V344.914Z" fill="white"/>
<path d="M544.011 370.118L528.529 384.73L491.703 348.312L510.393 336.135L544.011 370.118Z" fill="#0B34C5"/>
<path d="M493.135 357.3C493.235 357.199 493.291 357.062 493.291 356.92C493.291 356.778 493.235 356.642 493.135 356.541L489.914 353.318C489.812 353.22 489.676 353.166 489.535 353.166C489.394 353.166 489.259 353.22 489.156 353.318C489.056 353.418 489 353.555 489 353.697C489 353.839 489.056 353.975 489.156 354.076L492.377 357.3C492.479 357.397 492.615 357.451 492.756 357.451C492.897 357.451 493.033 357.397 493.135 357.3V357.3Z" fill="#E6E6E6"/>
<path d="M498.56 361.971L495.339 358.748C495.239 358.647 495.102 358.591 494.96 358.591C494.818 358.591 494.682 358.647 494.581 358.748C494.481 358.848 494.424 358.985 494.424 359.127C494.424 359.269 494.481 359.406 494.581 359.506L497.802 362.73C497.852 362.78 497.911 362.819 497.976 362.846C498.041 362.873 498.11 362.887 498.181 362.887C498.251 362.887 498.321 362.873 498.386 362.846C498.451 362.819 498.51 362.78 498.56 362.73C498.609 362.68 498.649 362.621 498.676 362.556C498.703 362.491 498.717 362.421 498.717 362.35C498.717 362.28 498.703 362.21 498.676 362.145C498.649 362.08 498.609 362.021 498.56 361.971V361.971Z" fill="#E6E6E6"/>
<path d="M543.653 386.28C545.651 386.28 547.27 384.66 547.27 382.66C547.27 380.661 545.651 379.04 543.653 379.04C541.656 379.04 540.037 380.661 540.037 382.66C540.037 384.66 541.656 386.28 543.653 386.28Z" fill="#0B34C5"/>
<path d="M597.161 393.221L559.286 396.126C556.356 396.351 553.454 395.423 551.196 393.541C548.938 391.658 547.503 388.968 547.195 386.043V386.043C547.017 384.346 547.224 382.631 547.802 381.027C548.38 379.422 549.314 377.969 550.532 376.777C551.751 375.585 553.224 374.684 554.84 374.143C556.456 373.601 558.173 373.433 559.864 373.651L595.327 378.217L597.161 393.221Z" fill="#9F616A"/>
<path d="M592.459 398.002L588.048 372.364L639.293 363.139L638.59 243.899C649.534 247.664 658.745 255.27 664.518 265.309C670.292 275.347 672.237 287.14 669.994 298.503L664.459 377.228L592.459 398.002Z" fill="#E6E6E6"/>
<path d="M668.584 388.097L667.69 350.169H581.757L579.011 451.869L577.164 451.819L579.959 348.32H669.476L669.505 349.213L670.429 388.034L668.584 388.097Z" fill="#3F3D56"/>
<path d="M603.02 343.699V358.488H658.038V344.681L603.02 343.699Z" fill="#3F3D56"/>
</svg>
