<?xml version="1.0" standalone="no"?>
<!DOCTYPE svg PUBLIC "-//W3C//DTD SVG 20010904//EN"
 "http://www.w3.org/TR/2001/REC-SVG-20010904/DTD/svg10.dtd">
<svg version="1.0" xmlns="http://www.w3.org/2000/svg"
 width="700.000000pt" height="700.000000pt" viewBox="0 0 700.000000 700.000000"
 preserveAspectRatio="xMidYMid meet">
<metadata>
Created by potrace 1.11, written by Peter Selinger 2001-2013
</metadata>
<g transform="translate(0.000000,700.000000) scale(0.100000,-0.100000)"
fill="#000000" stroke="none">
<path d="M3460 6982 c-19 -9 -109 -52 -200 -95 -91 -44 -273 -130 -405 -192
-132 -62 -289 -136 -350 -165 -60 -29 -144 -68 -185 -87 -41 -20 -127 -60
-190 -90 -63 -30 -149 -71 -190 -90 -41 -20 -118 -56 -170 -81 -52 -24 -131
-62 -175 -82 -98 -46 -239 -113 -365 -173 -261 -124 -320 -152 -385 -182 -38
-18 -158 -74 -265 -125 -107 -51 -222 -105 -255 -120 -33 -16 -118 -56 -190
-90 l-130 -62 40 -18 c22 -10 96 -42 165 -70 69 -28 133 -55 142 -60 10 -6 22
-10 28 -10 6 0 32 -10 58 -21 76 -34 99 -44 262 -109 152 -61 179 -72 250
-103 19 -8 105 -43 190 -77 85 -34 169 -68 185 -75 17 -8 77 -33 135 -56 58
-23 125 -50 150 -61 l45 -19 0 -687 0 -687 1845 -2 1845 -2 5 690 5 691 275
112 c151 62 471 193 710 290 239 97 449 183 465 190 17 7 68 28 114 47 l83 34
-104 50 c-125 61 -321 153 -443 210 -49 23 -135 64 -190 90 -55 26 -138 65
-185 87 -97 46 -129 61 -760 361 -58 27 -132 62 -165 77 -69 32 -292 137 -545
258 -178 84 -471 223 -545 257 -38 18 -175 83 -303 143 -129 61 -241 113 -250
116 -9 2 -33 -3 -52 -12z"/>
<path d="M357 2874 c-116 -41 -211 -186 -282 -429 -14 -48 -28 -102 -30 -119
-6 -34 -16 -92 -21 -118 -19 -110 -26 -463 -11 -603 38 -367 165 -672 310
-746 42 -22 96 -27 162 -16 22 3 78 11 125 17 47 6 96 13 110 15 14 2 54 6 90
10 36 3 76 8 90 10 14 2 49 7 78 10 28 3 73 7 100 10 26 3 74 7 107 10 33 2
77 7 97 9 21 3 79 8 130 11 51 3 109 8 128 10 34 4 85 8 260 20 47 3 114 8
150 10 36 3 119 8 185 11 66 4 140 8 165 9 99 5 449 18 515 19 l70 1 0 -512 0
-513 308 307 307 308 308 -308 309 -309 1 489 c0 268 1 499 1 513 1 25 2 26
70 24 104 -2 429 -15 486 -19 28 -2 106 -6 175 -10 69 -3 145 -8 170 -10 25
-2 92 -7 150 -10 96 -5 140 -8 270 -20 25 -2 79 -7 120 -10 116 -8 242 -20
330 -30 19 -2 64 -7 100 -10 97 -10 470 -54 510 -61 136 -24 205 5 289 120 83
114 137 272 186 541 23 125 26 502 6 660 -41 322 -154 598 -279 680 -64 42
-102 44 -279 19 -89 -12 -194 -25 -235 -29 -40 -4 -80 -8 -88 -10 -8 -1 -44
-6 -80 -9 -36 -4 -81 -9 -100 -11 -19 -2 -69 -7 -110 -11 -41 -3 -82 -7 -90
-9 -8 -2 -62 -6 -120 -10 -58 -4 -113 -9 -122 -10 -9 -2 -66 -7 -125 -10 -59
-3 -128 -8 -153 -10 -96 -8 -200 -15 -325 -21 -71 -3 -146 -7 -165 -9 -143
-13 -589 -20 -1245 -20 -658 0 -923 4 -1200 20 -27 2 -106 6 -175 10 -222 12
-244 13 -320 19 -41 3 -109 8 -150 11 -41 3 -100 8 -130 10 -30 3 -107 10
-170 15 -63 6 -133 12 -155 15 -22 2 -71 7 -110 10 -63 5 -123 12 -166 20 -8
2 -48 6 -88 10 -40 3 -80 8 -89 10 -9 1 -46 6 -82 10 -36 4 -72 9 -80 10 -126
22 -152 24 -193 9z"/>
</g>
</svg>
