<svg id="Capa_1" enable-background="new 0 0 512 512" height="512" viewBox="0 0 512 512" width="512" xmlns="http://www.w3.org/2000/svg"><g><path d="m482 301.044c-55.673 7.958-118.29 12.541-181 14.075l-45 30.549-45-30.549c-62.71-1.534-125.327-6.118-181-14.075l-2.124 29.854v90.293l2.124 29.853c68.806-9.838 158.247-14.927 226-14.927 67.63 0 157.079 5.074 226 14.927l2.124-29.854v-90.293z" fill="#e6f7ff"/><path d="m484.124 421.19v-90.293l-2.124-29.853c-55.673 7.958-118.29 12.541-181 14.075l-45 30.549v90.449c67.63 0 157.079 5.074 226 14.927z" fill="#cce6ff"/><path d="m256 .044-256 121 121 49.411h135 135l121-49.411z" fill="#333e73"/><path d="m512 121.044-256-121v170.411h135z" fill="#1f2859"/><ellipse cx="30" cy="376.044" fill="#cce6ff" rx="30" ry="75"/><ellipse cx="482" cy="376.044" fill="#b3ccff" rx="30" ry="75"/><path d="m256 99.892-135 70.563v100.589h135 135v-100.589z" fill="#4d578c"/><path d="m391 170.455-135-70.563v171.152h135z" fill="#333e73"/><path d="m256 315.119c-15.015 0-30.027.366-45 0v196.837l45-45 45 45v-196.837c-14.971.366-29.987 0-45 0z" fill="#ff6680"/><path d="m301 315.119c-14.971.366-29.987 0-45 0v151.837l45 45z" fill="#e64560"/></g></svg>